<svg xmlns="http://www.w3.org/2000/svg" width="60.808" height="55.853" viewBox="0 0 60.808 55.853">
  <path id="Icon_ion-ios-world-outline" data-name="Icon ion-ios-world-outline" d="M33.779,3.375h-.073C16.94,3.415,3.375,15.9,3.375,31.3S16.94,59.188,33.706,59.228h.073c16.8,0,30.4-12.5,30.4-27.927S50.574,3.375,33.779,3.375Zm1.213,16.716a48.853,48.853,0,0,0,9.384-1.141A46.264,46.264,0,0,1,45.941,30.2H34.992V20.091Zm0-2.242V5.792c3.274.832,6.607,4.847,8.712,11.01a46.268,46.268,0,0,1-8.712,1.047ZM32.566,5.765v12.1a45.809,45.809,0,0,1-8.785-1.074C25.915,10.585,29.262,6.544,32.566,5.765Zm0,14.326v10.1H21.544a46.264,46.264,0,0,1,1.564-11.251,49.616,49.616,0,0,0,9.457,1.155Zm-13.477,10.1H5.845a24.373,24.373,0,0,1,6.329-15.172,46.412,46.412,0,0,0,8.595,3.33A48.64,48.64,0,0,0,19.089,30.187Zm0,2.229a48.049,48.049,0,0,0,1.666,11.842,47.8,47.8,0,0,0-8.595,3.33A24.455,24.455,0,0,1,5.831,32.416Zm2.456,0H32.566V42.5a48.565,48.565,0,0,0-9.457,1.168,46.264,46.264,0,0,1-1.564-11.251ZM32.566,44.741v12.11c-3.3-.792-6.651-4.82-8.785-11.023A44.771,44.771,0,0,1,32.566,44.741Zm2.426,12.07V44.728a46.572,46.572,0,0,1,8.727,1.061C41.6,51.965,38.281,55.979,34.992,56.811Zm0-14.312V32.416H45.941a46.245,46.245,0,0,1-1.564,11.238A48.855,48.855,0,0,0,34.992,42.5ZM48.382,32.416H61.713a24.4,24.4,0,0,1-6.329,15.172,47.2,47.2,0,0,0-8.668-3.357,47.828,47.828,0,0,0,1.666-11.815Zm0-2.229A48.657,48.657,0,0,0,46.73,18.359a47.578,47.578,0,0,0,8.653-3.343A24.378,24.378,0,0,1,61.713,30.2H48.382ZM53.717,13.3a44.449,44.449,0,0,1-7.645,2.9A24.58,24.58,0,0,0,40.3,6.315,28.825,28.825,0,0,1,53.717,13.3ZM27.172,6.342a24.3,24.3,0,0,0-5.745,9.841A43.649,43.649,0,0,1,13.856,13.3,28.486,28.486,0,0,1,27.172,6.342ZM13.841,49.293a44.1,44.1,0,0,1,7.572-2.887,24.542,24.542,0,0,0,5.759,9.855,28.5,28.5,0,0,1-13.331-6.968Zm26.457,7a24.56,24.56,0,0,0,5.788-9.9,44.449,44.449,0,0,1,7.645,2.9,28.773,28.773,0,0,1-13.433,7Z" transform="translate(-3.375 -3.375)" fill="#e4e4e4"/>
</svg>
