<svg xmlns="http://www.w3.org/2000/svg" width="57.245" height="65.304" viewBox="0 0 57.245 65.304">
  <path id="Icon_fa-regular-user" data-name="Icon fa-regular-user" d="M38.8,16.308A10.21,10.21,0,1,0,28.587,26.5,10.2,10.2,0,0,0,38.8,16.308Zm-26.545,0A16.336,16.336,0,1,1,28.587,32.617,16.322,16.322,0,0,1,12.252,16.308Zm-5.96,42.81H50.883a16.626,16.626,0,0,0-16.463-14.27H22.755A16.626,16.626,0,0,0,6.292,59.118ZM0,61.45A22.732,22.732,0,0,1,22.755,38.733H34.419A22.732,22.732,0,0,1,57.174,61.45a3.788,3.788,0,0,1-3.79,3.784H3.79A3.788,3.788,0,0,1,0,61.45Z" transform="translate(0.035 0.035)" fill="#e4e4e4" stroke="#e4e4e4" stroke-width="0.07"/>
</svg>
